<svg width="20" height="20" viewBox="0 0 20 20" fill="none" xmlns="http://www.w3.org/2000/svg">
<path fill-rule="evenodd" clip-rule="evenodd" d="M4.33709 4.33709C4.7032 3.97097 5.2968 3.97097 5.66291 4.33709L10 8.67417L14.3371 4.33709C14.7032 3.97097 15.2968 3.97097 15.6629 4.33709C16.029 4.7032 16.029 5.2968 15.6629 5.66291L11.3258 10L15.6629 14.3371C16.029 14.7032 16.029 15.2968 15.6629 15.6629C15.2968 16.029 14.7032 16.029 14.3371 15.6629L10 11.3258L5.66291 15.6629C5.2968 16.029 4.7032 16.029 4.33709 15.6629C3.97097 15.2968 3.97097 14.7032 4.33709 14.3371L8.67417 10L4.33709 5.66291C3.97097 5.2968 3.97097 4.7032 4.33709 4.33709Z" fill="currentColor"/>
</svg>
